<?xml version="1.0" standalone="no"?>
<!DOCTYPE svg PUBLIC "-//W3C//DTD SVG 20010904//EN"
 "http://www.w3.org/TR/2001/REC-SVG-20010904/DTD/svg10.dtd">
<svg version="1.0" xmlns="http://www.w3.org/2000/svg"
 width="3350.000000pt" height="5192.000000pt" viewBox="0 0 3350.000000 5192.000000"
 preserveAspectRatio="xMidYMid meet">
<metadata>
Created by potrace 1.15, written by Peter Selinger 2001-2017
</metadata>
<g transform="translate(0.000000,5192.000000) scale(0.100000,-0.100000)"
fill="#000000" stroke="none">
<path d="M18455 48980 c-27 -4 -76 -20 -109 -35 -46 -21 -81 -28 -166 -35 -93
-6 -116 -12 -166 -39 -31 -17 -84 -36 -117 -42 -33 -6 -88 -25 -121 -44 -34
-18 -72 -36 -86 -40 -14 -4 -54 -25 -90 -46 -36 -21 -80 -41 -97 -45 -18 -3
-50 -22 -72 -40 -21 -19 -66 -42 -99 -53 -33 -10 -74 -28 -90 -40 -17 -11 -33
-21 -38 -21 -4 0 -30 -17 -58 -39 -28 -21 -65 -46 -83 -55 -17 -9 -39 -26 -47
-38 -17 -24 -34 -37 -132 -102 -32 -22 -93 -72 -134 -111 -41 -40 -102 -94
-135 -120 -68 -55 -99 -84 -242 -227 -57 -57 -103 -106 -103 -110 0 -4 -19
-29 -42 -55 -24 -26 -61 -67 -83 -92 -41 -47 -132 -164 -193 -250 -18 -25 -39
-50 -46 -56 -14 -12 -39 -57 -56 -102 -7 -18 -23 -39 -36 -48 -13 -8 -33 -33
-44 -55 -11 -22 -34 -60 -51 -83 -60 -82 -199 -337 -199 -365 0 -4 -20 -39
-45 -77 -25 -39 -45 -73 -45 -77 0 -4 -16 -33 -35 -65 -19 -32 -41 -88 -50
-125 -8 -37 -30 -93 -49 -125 -18 -32 -37 -69 -41 -83 -4 -14 -23 -53 -42 -88
-18 -35 -36 -85 -40 -110 -3 -26 -16 -68 -29 -94 -13 -26 -33 -85 -44 -130
-10 -46 -28 -101 -38 -123 -35 -70 -67 -189 -111 -410 -16 -77 -44 -206 -64
-287 -30 -121 -38 -177 -46 -318 -6 -94 -13 -174 -16 -179 -8 -14 -35 -270
-35 -339 0 -93 7 -102 86 -102 82 0 137 25 153 71 6 18 16 109 21 203 6 94 15
220 21 281 10 105 16 141 59 320 11 44 24 124 30 177 5 54 19 121 31 150 11
29 29 89 39 133 10 44 32 116 49 160 18 44 38 114 46 157 7 42 25 98 38 125
13 26 30 66 37 88 7 22 26 63 41 90 16 28 37 84 47 125 11 41 33 104 50 139
18 34 32 69 32 76 0 7 18 39 40 72 21 32 43 77 48 99 5 22 25 63 44 91 20 29
39 64 42 79 4 15 21 48 39 73 36 52 63 101 103 181 15 30 35 64 45 75 9 11 29
43 44 70 31 59 87 136 134 185 19 19 39 46 45 60 16 35 184 257 200 263 7 3
41 42 76 88 34 45 88 105 119 133 30 28 74 70 97 94 23 23 45 42 50 42 5 0 20
16 34 34 14 19 37 42 52 52 15 10 33 29 40 43 7 13 27 30 43 37 17 7 64 46
105 85 41 39 87 77 102 83 15 7 47 29 70 49 101 88 139 116 170 122 36 7 148
71 215 121 23 18 59 38 79 44 20 7 55 25 78 40 54 36 197 95 321 132 55 16
123 40 150 53 35 16 78 25 145 30 106 7 155 16 218 39 29 11 105 20 230 26
259 14 348 25 433 53 41 14 100 30 132 37 53 11 97 37 97 58 0 4 -42 25 -93
47 l-92 40 -360 1 c-198 1 -382 -2 -410 -6z"/>
<path d="M13325 20225 l-25 -24 0 -326 0 -326 25 -24 24 -25 3109 0 3108 0 22
20 c12 11 25 33 29 48 5 15 8 164 8 330 l0 304 -28 24 -28 24 -3110 0 -3110 0
-24 -25z"/>
<path d="M14455 19281 c-11 -5 -29 -19 -40 -31 -19 -21 -20 -38 -23 -325 l-3
-303 25 -28 24 -29 2001 -3 c2183 -2 2059 -6 2081 53 6 15 10 150 10 321 l0
295 -25 24 c-13 14 -34 25 -47 24 -13 0 -914 2 -2003 5 -1089 2 -1989 1 -2000
-3z"/>
<path d="M19775 15491 c-271 -7 -275 -8 -319 -83 -29 -52 -43 -119 -50 -258
-8 -135 6 -238 43 -333 17 -41 33 -99 36 -129 9 -87 26 -197 46 -304 28 -154
36 -464 15 -636 -9 -75 -20 -147 -25 -160 -5 -13 -16 -84 -26 -158 -10 -78
-25 -154 -37 -180 -11 -25 -30 -94 -44 -154 -13 -60 -35 -128 -48 -150 -13
-23 -31 -63 -39 -91 -8 -27 -24 -66 -36 -86 -12 -20 -33 -65 -46 -100 -14 -34
-33 -72 -44 -83 -10 -12 -24 -38 -31 -59 -6 -21 -28 -58 -47 -84 -19 -25 -41
-64 -49 -87 -15 -41 -82 -134 -139 -192 -16 -17 -52 -61 -80 -99 -60 -82 -360
-386 -429 -435 -27 -19 -69 -53 -95 -75 -25 -22 -77 -61 -116 -86 -38 -25 -95
-62 -125 -82 -30 -21 -60 -37 -66 -37 -7 0 -34 -15 -60 -33 -59 -41 -231 -123
-298 -144 -26 -8 -74 -27 -105 -42 -31 -16 -78 -34 -105 -40 -27 -7 -72 -24
-100 -38 -34 -17 -97 -34 -186 -49 -74 -13 -187 -35 -250 -49 l-115 -27 -395
5 c-371 4 -399 6 -460 26 -36 12 -116 31 -178 41 -63 11 -138 31 -169 45 -31
14 -92 35 -136 46 -44 11 -101 31 -126 43 -25 13 -73 31 -106 41 -33 9 -67 23
-77 32 -9 8 -47 27 -85 42 -66 27 -160 82 -233 136 -19 14 -75 52 -125 84 -49
32 -99 68 -110 81 -19 22 -111 94 -146 115 -32 19 -282 260 -305 295 -13 19
-62 80 -109 135 -104 123 -168 211 -201 278 -15 29 -35 61 -45 73 -11 11 -34
49 -52 85 -18 35 -41 78 -50 94 -29 54 -107 231 -107 244 0 7 -13 43 -29 79
-16 37 -39 103 -50 148 -11 44 -32 106 -46 137 -19 41 -29 86 -36 159 -6 57
-19 137 -29 178 -24 96 -44 424 -35 575 4 61 15 155 26 210 10 55 25 152 34
215 8 64 25 147 39 186 41 120 49 193 44 399 -5 218 -19 273 -76 311 -31 21
-38 22 -264 17 -253 -6 -254 -6 -368 -78 -29 -18 -55 -23 -155 -28 -117 -6
-122 -6 -190 23 -81 35 -96 36 -117 13 -39 -46 -29 -78 27 -89 22 -4 36 -14
44 -31 17 -38 -6 -56 -70 -54 l-26 1 -6 -132 c-4 -73 -7 -1783 -7 -3800 l0
-3668 21 -21 c18 -18 28 -20 63 -15 120 19 190 24 279 19 88 -5 103 -9 139
-35 22 -16 61 -37 86 -46 43 -15 334 -17 3567 -25 1936 -5 3656 -9 3822 -9
167 0 319 3 338 6 25 5 40 16 52 39 17 30 18 232 15 3956 -2 3045 -6 3931 -15
3950 -7 14 -23 27 -37 31 -32 8 -544 8 -855 1z"/>
</g>
</svg>
