<?xml version="1.0" standalone="no"?>
<!DOCTYPE svg PUBLIC "-//W3C//DTD SVG 20010904//EN"
 "http://www.w3.org/TR/2001/REC-SVG-20010904/DTD/svg10.dtd">
<svg version="1.0" xmlns="http://www.w3.org/2000/svg"
 width="1159.000000pt" height="1958.000000pt" viewBox="0 0 1159.000000 1958.000000"
 preserveAspectRatio="xMidYMid meet">
<metadata>
Created by potrace 1.15, written by Peter Selinger 2001-2017
</metadata>
<g transform="translate(0.000000,1958.000000) scale(0.100000,-0.100000)"
fill="#000000" stroke="none">
<path d="M7235 18541 c-67 -8 -166 -45 -264 -99 -36 -19 -84 -38 -106 -41 -29
-4 -43 -12 -50 -28 -5 -13 -18 -23 -27 -23 -11 0 -18 -8 -18 -20 0 -13 -7 -20
-20 -20 -13 0 -20 -7 -20 -20 0 -13 -7 -20 -20 -20 -17 0 -20 -7 -20 -39 0
-30 -4 -40 -20 -44 -12 -3 -20 -14 -20 -26 0 -14 -6 -21 -20 -21 -21 0 -22 -2
-25 -140 -2 -64 -25 -162 -56 -240 -12 -30 -28 -75 -36 -100 -8 -25 -21 -61
-28 -80 -18 -45 -22 -76 -35 -248 -9 -117 -8 -171 5 -305 9 -89 22 -182 30
-207 7 -25 17 -65 20 -90 4 -25 12 -54 17 -64 6 -11 16 -42 24 -70 14 -55 60
-185 68 -193 3 -3 1 -14 -5 -25 -6 -10 -7 -38 -3 -63 5 -35 10 -45 25 -45 16
0 19 -8 19 -44 0 -25 6 -48 14 -55 11 -9 12 -6 8 14 -3 18 0 25 12 25 21 0 32
-28 17 -43 -12 -12 -16 -67 -5 -67 4 0 12 7 19 17 15 20 35 9 35 -19 0 -16 -5
-19 -21 -15 -17 4 -19 3 -10 -6 6 -6 11 -21 11 -34 0 -16 6 -23 20 -23 17 0
20 -7 20 -41 0 -32 4 -42 20 -46 13 -3 22 -17 26 -39 4 -20 13 -36 25 -39 10
-4 19 -15 19 -26 0 -12 7 -19 20 -19 14 0 20 -7 20 -24 0 -35 10 -56 26 -56 8
0 14 -9 14 -21 0 -12 8 -23 19 -26 11 -3 21 -13 24 -24 3 -10 12 -19 21 -19 9
0 16 -8 16 -20 0 -12 11 -31 25 -44 14 -13 25 -31 25 -40 0 -9 8 -16 20 -16
13 0 20 -7 20 -20 0 -12 7 -20 16 -20 9 0 18 -9 21 -20 3 -10 13 -22 23 -25
10 -3 20 -15 23 -25 3 -11 12 -20 20 -20 8 0 17 -9 20 -20 3 -11 12 -20 20
-20 8 0 17 -9 20 -20 3 -12 14 -20 26 -20 14 0 21 -6 21 -20 0 -15 7 -20 28
-20 32 0 46 -9 55 -32 3 -10 13 -18 21 -18 7 0 16 -9 19 -20 3 -11 12 -20 20
-20 8 0 17 -9 20 -20 4 -15 14 -20 40 -20 27 0 37 -5 42 -20 3 -11 15 -20 26
-20 18 0 19 -8 19 -144 0 -131 -2 -144 -18 -148 -19 -5 -32 -59 -32 -134 0
-22 -5 -34 -14 -34 -16 0 -26 -30 -26 -81 0 -28 -5 -38 -20 -42 -15 -4 -20
-14 -20 -40 0 -26 -5 -36 -20 -40 -16 -4 -20 -14 -20 -46 0 -34 -3 -41 -20
-41 -13 0 -20 -7 -20 -20 0 -13 -7 -20 -20 -20 -12 0 -20 -7 -20 -16 0 -20
-45 -64 -65 -64 -7 0 -17 9 -20 20 -5 15 -15 20 -45 20 -29 0 -39 4 -43 20 -4
17 -14 20 -60 20 -45 0 -56 3 -60 19 -3 14 -18 20 -66 25 -41 5 -61 11 -61 20
0 16 -31 26 -81 26 -28 0 -38 5 -42 20 -4 17 -14 20 -66 20 -45 0 -61 4 -61
14 0 17 -22 26 -61 26 -18 0 -29 -5 -29 -14 0 -9 11 -13 33 -12 22 1 32 -3 32
-14 0 -21 -29 -24 -67 -6 -18 8 -53 17 -78 21 -25 4 -67 13 -95 20 -65 19
-294 58 -406 70 -92 10 -91 8 -99 191 -9 177 4 579 20 664 6 30 15 116 21 190
5 74 16 171 23 215 8 44 17 125 21 180 3 55 13 144 21 197 8 54 14 122 14 150
0 29 7 110 15 180 8 70 21 241 30 381 8 140 19 296 25 346 6 50 11 139 11 199
1 99 -1 111 -26 154 -46 82 -131 133 -280 166 -49 11 -126 20 -170 21 -74 1
-271 -26 -460 -64 -154 -31 -191 -37 -295 -47 -125 -12 -735 -3 -830 13 -36 6
-215 13 -398 15 -321 5 -336 5 -425 -17 -199 -49 -296 -141 -332 -317 -16 -78
-16 -92 0 -215 9 -73 25 -156 36 -185 10 -30 19 -64 19 -75 0 -12 9 -53 21
-92 12 -38 31 -101 42 -140 32 -113 76 -241 92 -272 8 -15 15 -36 15 -46 0 -9
9 -34 20 -54 11 -21 20 -45 20 -53 0 -8 9 -28 20 -45 11 -16 20 -36 20 -42 0
-12 82 -193 101 -223 5 -8 12 -22 15 -30 4 -8 21 -43 38 -78 17 -35 37 -75 44
-90 7 -15 17 -34 22 -42 5 -8 21 -37 35 -65 13 -27 34 -66 46 -85 13 -19 39
-66 59 -105 47 -89 94 -174 137 -249 18 -32 40 -72 49 -90 8 -17 27 -53 43
-81 29 -54 61 -115 108 -210 16 -33 35 -69 41 -80 34 -61 102 -216 102 -233 0
-29 -24 -50 -73 -62 -23 -5 -69 -19 -102 -30 -33 -11 -67 -20 -75 -20 -8 -1
-33 -9 -55 -20 -22 -11 -48 -19 -57 -20 -44 -1 -423 -169 -553 -246 -22 -13
-60 -35 -85 -49 -60 -34 -81 -47 -98 -63 -11 -10 -18 -10 -26 -2 -8 8 -6 15 7
24 24 18 21 26 -8 26 -18 0 -25 -5 -25 -20 0 -14 -7 -20 -21 -20 -12 0 -23 -8
-26 -20 -3 -13 -14 -20 -29 -20 -12 0 -35 -11 -50 -25 -15 -14 -31 -25 -35
-25 -5 0 -9 -9 -9 -20 0 -13 -7 -20 -20 -20 -13 0 -20 -7 -20 -20 0 -13 -7
-20 -19 -20 -11 0 -22 -9 -26 -19 -3 -10 -15 -21 -25 -24 -11 -3 -20 -12 -20
-20 0 -8 -9 -17 -20 -20 -11 -3 -20 -12 -20 -20 0 -8 -9 -17 -20 -20 -11 -3
-20 -12 -20 -20 0 -8 -9 -17 -20 -20 -12 -3 -20 -14 -20 -26 0 -14 -6 -21 -20
-21 -15 0 -20 -7 -20 -25 0 -18 -5 -25 -20 -25 -11 0 -20 -7 -20 -15 0 -8 -8
-19 -18 -24 -24 -13 -42 -73 -29 -96 7 -13 5 -25 -6 -44 -39 -67 -97 -186 -97
-201 0 -8 -6 -24 -14 -35 -8 -11 -26 -69 -40 -127 l-26 -108 0 -4732 0 -4733
29 -110 c36 -137 49 -171 103 -276 43 -83 64 -116 131 -213 55 -78 220 -249
304 -315 43 -33 87 -68 98 -78 65 -58 408 -266 461 -279 13 -3 28 -12 35 -20
6 -8 16 -14 22 -14 6 0 29 -9 51 -19 83 -40 244 -103 336 -132 52 -17 111 -37
130 -45 19 -7 53 -16 75 -20 22 -4 54 -13 70 -19 17 -7 53 -16 80 -20 28 -4
58 -11 69 -17 10 -5 53 -16 95 -23 42 -7 108 -20 146 -29 39 -9 84 -16 102
-16 17 0 63 -6 100 -14 38 -8 136 -20 218 -25 260 -19 285 -22 285 -37 0 -12
40 -14 235 -14 195 0 235 2 235 14 0 15 27 19 295 37 88 5 176 14 195 19 20 5
83 16 140 25 162 23 365 67 470 100 25 8 65 19 90 24 25 6 83 24 130 41 47 17
100 35 119 40 19 5 48 15 65 23 17 9 60 27 96 42 154 63 343 158 441 222 19
13 43 28 54 35 11 7 38 24 60 37 22 14 47 31 55 38 8 7 60 48 115 91 55 44
136 118 180 164 225 239 338 444 390 706 l25 123 0 4670 c0 3210 -3 4682 -10
4709 -6 21 -17 71 -24 112 -23 121 -102 311 -172 409 -34 48 -43 79 -24 79 6
0 10 12 10 26 0 17 -6 28 -20 31 -11 3 -20 12 -20 19 0 8 -9 14 -20 14 -13 0
-20 7 -20 20 0 12 -10 25 -25 32 -14 6 -25 18 -25 26 0 7 -9 16 -20 19 -11 3
-20 14 -20 24 0 12 -7 19 -20 19 -14 0 -20 7 -20 21 0 37 -19 59 -50 59 -21 0
-30 5 -30 16 0 9 -9 18 -20 21 -38 10 -38 76 0 86 11 3 20 12 20 21 0 9 7 16
15 16 9 0 20 11 25 25 5 14 16 25 25 25 11 0 15 11 15 40 0 33 3 40 20 40 13
0 20 7 20 19 0 10 9 21 20 24 15 4 20 14 20 40 0 26 5 36 19 40 13 3 21 17 26
46 4 23 12 41 20 41 13 0 25 43 25 90 0 19 6 29 20 33 17 4 20 14 20 62 0 44
4 61 18 71 15 11 17 34 20 173 3 127 6 161 17 161 7 0 15 7 17 15 3 13 35 16
221 18 195 2 220 4 231 20 9 11 27 17 55 17 34 0 41 3 41 20 0 15 7 20 29 20
39 0 61 9 61 25 0 15 22 25 55 25 20 0 24 7 30 42 6 32 22 58 66 108 60 67
118 148 119 164 0 5 6 17 13 25 13 16 49 108 81 209 9 29 22 92 27 140 17 144
19 152 34 152 9 0 15 10 15 25 0 16 -6 25 -15 25 -10 0 -15 11 -15 35 0 24 5
35 15 35 12 0 15 13 15 55 0 42 -3 55 -15 55 -8 0 -15 2 -15 4 0 26 -32 281
-36 288 -3 5 -14 48 -24 96 -21 96 -51 203 -75 272 -27 76 -104 265 -120 296
-8 16 -15 33 -15 37 0 4 -18 39 -39 77 -32 56 -37 72 -27 85 18 25 8 96 -15
102 -11 3 -19 14 -19 23 0 10 -9 22 -20 25 -15 5 -20 15 -20 42 0 26 -5 36
-19 40 -11 3 -22 14 -25 26 -5 20 -6 20 -24 4 -14 -13 -21 -14 -30 -5 -16 16
-15 38 1 38 9 0 12 10 9 30 -3 21 -10 30 -23 30 -12 0 -19 7 -19 19 0 11 -9
23 -20 26 -14 4 -20 15 -20 35 0 16 -8 35 -18 42 -10 7 -21 21 -25 31 -3 9
-13 17 -22 17 -8 0 -15 7 -15 16 0 9 -9 18 -19 21 -11 3 -21 13 -24 24 -3 11
-14 19 -26 19 -15 0 -21 6 -21 21 0 12 -8 23 -20 26 -11 3 -20 14 -20 24 0 12
-7 19 -20 19 -13 0 -20 7 -20 20 0 13 -7 20 -19 20 -13 0 -21 10 -25 34 -7 34
-21 46 -56 46 -10 0 -20 9 -23 20 -3 12 -14 20 -26 20 -15 0 -21 6 -21 21 0
12 -8 23 -19 26 -11 3 -21 13 -24 24 -3 10 -12 19 -20 19 -8 0 -17 9 -20 20
-3 11 -12 20 -20 20 -8 0 -17 9 -20 20 -4 15 -14 20 -40 20 -27 0 -37 5 -42
20 -3 11 -15 20 -26 20 -12 0 -19 7 -19 20 0 17 -7 20 -40 20 -33 0 -40 3 -40
20 0 22 -51 42 -58 22 -6 -19 -25 -14 -111 28 -44 22 -86 40 -92 40 -6 0 -25
7 -42 15 -18 7 -77 26 -132 40 -109 28 -291 40 -400 26z m-1471 -861 c15 -5
42 -10 59 -10 85 -1 217 -114 217 -185 0 -90 -130 -232 -260 -285 -14 -5 -32
-14 -40 -19 -80 -51 -348 -125 -530 -147 -63 -8 -137 -18 -165 -23 -83 -16
-664 -13 -748 3 -40 8 -146 19 -236 26 -135 9 -165 9 -172 -2 -14 -21 -10 -44
11 -71 11 -14 20 -30 20 -35 0 -5 7 -15 16 -22 8 -8 22 -27 29 -44 8 -17 30
-58 49 -91 19 -33 35 -66 36 -74 0 -8 7 -22 16 -32 25 -28 11 -44 -57 -63
-118 -33 -299 -31 -469 5 -108 23 -266 85 -290 114 -7 8 -17 15 -23 15 -20 0
-77 51 -121 109 -65 84 -94 158 -107 267 -5 51 -14 106 -19 123 -6 20 -4 45 6
77 8 26 14 60 14 75 0 36 73 127 119 151 19 9 39 22 44 27 6 6 24 11 39 11 15
0 47 8 70 18 38 15 80 17 338 17 213 0 321 -4 390 -15 128 -20 975 -22 1031
-2 20 7 73 17 119 22 46 5 101 16 124 24 23 8 100 22 171 31 72 9 132 19 135
22 8 8 153 -5 184 -17z m238 -665 c-2 -121 -9 -269 -17 -330 -8 -60 -19 -180
-24 -265 -6 -85 -15 -179 -20 -208 -6 -29 -15 -119 -21 -200 -5 -81 -14 -163
-20 -182 -6 -19 -15 -106 -20 -192 -6 -86 -15 -169 -20 -184 -34 -88 -39 -862
-7 -954 9 -25 21 -87 27 -138 5 -50 17 -117 25 -149 8 -31 15 -80 15 -108 0
-27 7 -81 16 -120 8 -38 19 -131 24 -205 5 -74 14 -162 20 -195 6 -33 13 -118
17 -188 l6 -129 -37 -34 c-20 -19 -41 -34 -47 -34 -5 0 -32 -17 -59 -37 -26
-21 -67 -49 -90 -63 -23 -14 -51 -32 -61 -41 -25 -21 -66 -13 -73 14 -3 12 -6
79 -6 148 0 70 -7 164 -15 210 -8 46 -19 136 -25 199 -6 63 -17 144 -25 180
-8 36 -19 97 -24 135 -5 39 -14 88 -20 110 -9 37 -17 74 -55 265 -7 36 -20 90
-29 120 -9 30 -20 75 -26 100 -21 94 -43 176 -52 195 -5 11 -16 45 -23 75 -8
30 -19 69 -25 85 -18 52 -42 129 -53 170 -6 22 -19 63 -28 90 -10 28 -28 84
-40 125 -12 41 -28 95 -36 120 -19 56 -38 126 -59 210 -9 36 -23 80 -31 98 -7
18 -17 51 -20 75 -4 23 -12 53 -19 67 -7 14 -16 45 -20 70 -4 25 -16 67 -26
93 -11 26 -19 60 -19 75 -1 15 -9 45 -20 67 -11 22 -19 51 -20 65 0 14 -9 52
-19 85 -27 84 -58 193 -68 239 -16 75 -20 76 -350 80 -220 2 -296 6 -307 15
-16 13 -129 236 -141 278 -4 15 -1 25 12 31 19 10 236 0 358 -18 108 -15 495
-12 600 4 50 8 128 17 175 20 47 4 122 15 165 26 44 11 93 20 108 20 15 0 44
7 65 15 20 9 57 20 82 26 49 10 61 15 200 83 52 26 113 62 135 81 70 60 70 59
67 -190z m-2722 -392 c211 -98 413 -128 664 -98 175 21 778 27 798 7 15 -15
37 -74 53 -142 7 -30 20 -80 29 -110 25 -83 44 -148 62 -215 9 -33 24 -89 35
-125 10 -36 23 -85 30 -110 6 -25 18 -65 26 -90 8 -25 21 -70 28 -100 7 -30
18 -68 24 -85 6 -16 22 -70 36 -120 46 -161 66 -229 85 -285 11 -30 22 -71 26
-90 3 -19 10 -39 14 -45 4 -5 15 -35 23 -65 16 -57 40 -133 59 -185 6 -16 16
-55 23 -85 7 -30 20 -77 29 -103 9 -26 16 -56 16 -67 0 -11 7 -37 15 -57 8
-21 21 -72 29 -113 8 -41 19 -93 25 -115 5 -22 19 -87 30 -145 11 -58 27 -143
36 -190 9 -47 21 -130 26 -185 5 -55 14 -113 20 -130 10 -29 21 -179 35 -460
l7 -140 -34 -26 c-41 -31 -195 -119 -207 -119 -5 0 -19 -9 -32 -20 -13 -11
-28 -20 -35 -20 -7 0 -24 -11 -39 -25 -15 -14 -38 -25 -51 -25 -13 0 -27 -5
-30 -10 -3 -6 -23 -18 -43 -28 -20 -10 -46 -23 -57 -29 -11 -5 -42 -20 -70
-33 -27 -13 -57 -27 -65 -32 -8 -4 -31 -15 -50 -24 -19 -8 -47 -21 -62 -29
-14 -8 -41 -15 -60 -15 -35 0 -163 41 -180 58 -5 5 -9 90 -8 203 0 129 -4 223
-14 279 -8 47 -18 132 -22 190 -3 58 -12 123 -19 145 -8 22 -18 72 -24 111 -6
39 -17 86 -25 105 -7 19 -17 56 -21 84 -4 27 -13 61 -20 75 -7 14 -16 44 -20
65 -4 22 -13 54 -21 72 -8 17 -18 51 -23 75 -5 24 -16 57 -25 73 -9 17 -16 38
-16 48 0 9 -9 34 -20 54 -11 21 -20 45 -20 53 -1 8 -9 33 -20 55 -11 22 -19
44 -20 49 0 5 -9 27 -19 50 -43 91 -71 155 -71 162 0 5 -20 49 -44 99 -24 49
-65 133 -90 185 -25 52 -66 131 -91 175 -25 44 -54 98 -65 120 -32 63 -93 175
-141 259 -78 137 -91 160 -131 236 -21 41 -43 82 -48 90 -5 8 -23 44 -41 80
-17 36 -36 72 -40 80 -5 8 -13 26 -19 40 -5 14 -14 32 -19 40 -8 14 -35 71
-81 175 -9 22 -24 56 -33 75 -57 130 -67 154 -67 168 0 8 -9 33 -19 56 -45 95
-72 214 -57 251 4 12 9 12 33 1 15 -8 66 -32 113 -53z m2805 -2519 c64 -21
203 -73 224 -84 9 -4 43 -21 76 -36 133 -61 364 -239 365 -280 0 -6 18 -39 41
-74 54 -83 46 -104 -21 -51 -27 22 -62 42 -77 46 -16 3 -46 19 -68 35 -48 35
-318 170 -340 170 -8 0 -32 9 -52 20 -21 11 -47 20 -58 20 -35 0 -154 51 -159
68 -9 27 -10 157 -2 170 9 15 11 15 71 -4z m-1811 -170 c21 -20 28 -52 24 -99
-3 -38 -5 -40 -99 -89 -53 -28 -108 -61 -124 -73 -15 -13 -32 -23 -37 -23 -5
0 -29 -15 -54 -34 -25 -19 -58 -38 -75 -41 -16 -4 -29 -11 -29 -16 0 -5 -7 -9
-15 -9 -16 0 -21 25 -6 34 4 3 11 19 14 35 6 30 49 99 89 141 12 14 58 52 101
85 135 103 179 122 211 89z m1955 -274 c29 -10 63 -28 74 -39 l21 -21 -42 -16
c-23 -10 -42 -21 -42 -26 0 -4 -6 -8 -12 -8 -7 0 -36 -12 -65 -26 -28 -15 -58
-24 -66 -21 -8 3 -17 27 -21 59 -4 29 -10 70 -13 90 -5 33 -3 39 18 47 17 6
35 4 59 -6 19 -8 59 -23 89 -33z m-1865 -49 c6 -9 20 -71 45 -196 31 -152 44
-289 48 -488 6 -249 2 -287 -29 -287 -29 0 -147 48 -178 72 -14 10 -64 45
-111 76 -95 63 -202 156 -234 205 -11 17 -28 42 -38 56 -52 77 -59 128 -24
175 13 17 32 52 42 79 12 31 24 47 35 47 10 0 24 10 33 23 8 13 36 39 61 58
26 18 66 51 89 71 23 20 54 40 70 43 15 4 27 11 27 16 0 28 150 73 164 50z
m2204 -109 c19 -15 42 -31 50 -37 9 -5 21 -15 27 -21 5 -6 25 -21 43 -33 18
-13 59 -58 92 -102 119 -158 119 -168 9 -316 -43 -58 -149 -163 -164 -163 -4
0 -28 -17 -54 -39 -49 -41 -59 -47 -172 -102 -105 -51 -134 -63 -224 -93 -44
-15 -89 -31 -100 -37 -11 -5 -51 -15 -90 -23 -38 -8 -90 -19 -115 -25 -193
-46 -562 -63 -784 -36 -77 10 -147 22 -153 28 -25 19 8 45 144 112 75 37 143
74 151 81 7 8 22 14 31 14 10 0 24 7 31 15 7 9 46 32 87 53 120 61 147 75 196
110 27 17 51 32 55 32 4 0 33 18 65 40 31 22 63 40 71 40 7 0 21 9 31 20 10
11 41 34 69 51 28 16 65 39 81 52 105 76 141 103 155 115 8 7 44 34 80 60 36
26 72 54 80 63 8 9 42 38 75 65 33 27 62 52 63 57 2 4 20 19 40 33 45 30 79
27 130 -14z m-4139 -2832 c17 -22 31 -42 31 -45 0 -17 100 -124 137 -147 23
-15 53 -44 66 -65 32 -50 133 -142 176 -160 42 -18 85 -47 136 -94 59 -54 232
-149 271 -149 7 0 25 -11 41 -24 41 -34 135 -76 171 -76 29 0 87 -27 123 -57
9 -7 45 -18 80 -25 40 -6 81 -22 109 -40 27 -18 65 -33 95 -37 28 -4 56 -10
63 -15 6 -4 40 -12 74 -17 35 -6 74 -17 87 -26 13 -8 64 -21 115 -28 50 -7
125 -20 166 -29 41 -9 86 -16 99 -16 14 0 32 -7 42 -16 13 -12 50 -18 141 -23
68 -4 132 -4 142 -1 10 4 42 3 70 -2 28 -5 74 -11 101 -13 28 -2 66 -8 85 -14
23 -8 137 -11 345 -10 275 2 315 4 358 20 39 16 76 19 200 19 113 0 158 4 172
14 27 19 68 26 162 31 44 2 93 10 109 18 16 8 55 17 87 21 32 3 74 15 95 26
20 11 53 20 74 20 20 0 60 9 88 20 28 11 62 20 75 20 13 0 54 16 89 36 41 22
88 39 127 44 33 5 68 15 78 23 9 8 33 17 53 20 20 3 51 15 67 26 17 12 44 30
61 41 16 11 40 20 53 20 14 0 30 6 36 14 7 8 25 18 41 21 16 3 38 15 51 26 12
10 27 19 34 19 7 0 24 11 39 25 15 14 36 25 47 25 11 0 32 8 47 18 15 11 46
31 69 46 23 16 57 42 75 60 18 17 51 42 73 55 136 81 172 110 188 150 9 22 35
57 58 78 69 63 98 95 132 150 36 60 43 64 76 52 22 -9 23 -13 17 -55 -3 -25
-1 -77 4 -117 9 -64 8 -82 -16 -176 -24 -95 -26 -119 -23 -262 3 -133 7 -160
22 -177 10 -10 17 -32 16 -48 0 -16 -2 -1437 -4 -3159 -3 -2117 -7 -3156 -14
-3210 -6 -44 -13 -101 -16 -126 -3 -26 -12 -55 -20 -65 -8 -11 -15 -29 -15
-42 0 -26 -45 -124 -99 -217 -97 -168 -339 -414 -521 -530 -26 -16 -65 -42
-86 -56 -22 -14 -70 -42 -108 -62 -38 -20 -74 -41 -80 -46 -6 -5 -22 -12 -36
-16 -14 -4 -36 -16 -49 -26 -13 -11 -31 -19 -40 -19 -10 0 -22 -5 -28 -11 -13
-13 -111 -55 -163 -71 -19 -5 -42 -16 -50 -23 -8 -7 -33 -16 -54 -19 -21 -4
-48 -13 -60 -21 -12 -7 -39 -16 -61 -20 -22 -3 -50 -13 -62 -20 -11 -8 -47
-19 -80 -24 -32 -5 -71 -16 -88 -25 -16 -9 -48 -16 -70 -16 -22 0 -58 -9 -80
-20 -24 -11 -62 -19 -93 -20 -29 0 -78 -9 -109 -20 -33 -11 -83 -20 -118 -20
-33 0 -89 -7 -125 -15 -37 -9 -184 -22 -340 -29 -321 -17 -796 -6 -910 20 -35
9 -103 18 -150 21 -47 2 -111 13 -143 24 -31 10 -79 19 -107 19 -27 0 -72 9
-100 20 -28 11 -64 20 -81 20 -17 0 -51 9 -77 19 -26 11 -67 22 -91 25 -24 4
-53 12 -65 19 -11 6 -41 17 -66 24 -78 20 -144 43 -182 64 -20 10 -45 19 -55
19 -10 0 -31 9 -48 20 -16 11 -36 20 -42 20 -12 0 -200 89 -233 109 -16 10
-54 30 -106 55 -17 8 -36 22 -44 30 -7 9 -17 16 -23 16 -14 0 -90 51 -100 67
-4 7 -13 13 -18 13 -12 0 -25 9 -144 105 -111 88 -296 285 -338 358 -10 18
-26 46 -37 62 -54 84 -115 235 -125 308 -4 27 -13 67 -20 88 -12 34 -15 580
-15 3632 -1 1976 1 3599 5 3608 10 26 50 11 84 -31z"/>
<path d="M7248 8839 c-10 -10 -27 -19 -38 -19 -25 0 -139 -117 -166 -172 -72
-143 -67 -120 -68 -295 -1 -135 2 -164 15 -180 9 -10 20 -28 24 -41 10 -33 44
-42 140 -37 67 4 89 9 105 25 11 11 27 20 35 20 29 0 38 44 43 200 3 125 1
159 -11 174 -14 19 -15 19 -26 -2 -8 -15 -21 -22 -41 -22 -26 0 -70 -32 -70
-51 0 -4 17 -11 38 -16 l37 -9 6 -74 c4 -66 -8 -160 -23 -176 -3 -3 -38 -6
-79 -7 -64 -2 -74 0 -84 18 -5 11 -19 33 -30 50 -18 26 -20 43 -17 145 2 80 8
122 18 137 8 13 17 43 21 68 4 30 12 49 24 56 11 5 19 18 19 28 0 24 84 101
109 101 11 0 23 5 27 11 3 6 22 18 41 25 26 12 34 20 31 37 -4 30 -56 34 -80
6z"/>
<path d="M3378 8802 c-40 -24 -61 -98 -42 -149 7 -21 13 -46 14 -55 0 -18 33
-71 80 -128 125 -150 120 -142 120 -212 0 -50 -4 -69 -18 -81 -27 -24 -97 -22
-122 3 -21 21 -74 27 -85 10 -3 -5 -2 -10 4 -10 5 0 12 -9 16 -19 3 -11 19
-24 36 -30 16 -5 37 -17 45 -26 11 -10 35 -15 79 -15 57 0 67 3 90 27 23 25
25 36 25 114 0 72 -3 90 -20 109 -11 13 -20 29 -20 35 0 7 -27 41 -59 76 -76
81 -111 146 -111 204 0 71 31 87 125 65 48 -11 59 -2 46 33 -7 19 -18 27 -34
27 -13 0 -32 9 -42 20 -22 25 -88 26 -127 2z"/>
<path d="M6768 8432 c-4 -157 -9 -236 -18 -252 l-13 -24 -18 23 c-11 13 -19
31 -19 41 0 10 -7 23 -15 30 -8 7 -20 30 -25 51 -6 22 -15 39 -20 39 -5 0 -14
19 -21 43 -6 23 -17 49 -24 57 -7 8 -16 30 -20 47 -3 18 -11 36 -16 39 -6 3
-15 17 -20 31 -8 22 -14 25 -41 19 -18 -3 -37 -11 -42 -16 -10 -10 -16 -563
-7 -633 5 -33 11 -43 27 -45 44 -6 48 15 45 254 l-2 224 30 -18 c17 -9 36 -30
43 -47 6 -16 20 -41 30 -54 10 -13 18 -33 18 -45 0 -11 9 -34 20 -51 11 -16
20 -37 20 -46 0 -9 8 -27 19 -40 10 -13 21 -41 25 -61 8 -46 42 -60 81 -34
l25 17 -2 337 -3 337 -26 3 -26 3 -5 -229z"/>
<path d="M3862 8633 c-5 -10 -12 -46 -15 -81 -3 -34 -12 -73 -20 -85 -8 -12
-18 -52 -22 -87 -4 -36 -13 -78 -21 -95 -9 -16 -19 -59 -24 -95 -4 -36 -15
-78 -24 -95 -24 -46 -21 -83 9 -97 14 -6 26 -9 28 -7 1 2 12 18 25 36 12 18
22 43 22 57 0 43 24 57 88 50 65 -8 98 -31 108 -78 3 -17 13 -40 20 -51 8 -11
14 -35 14 -55 0 -44 10 -59 40 -62 24 -3 25 -2 23 60 -2 36 -9 72 -18 86 -10
15 -18 58 -22 112 -3 53 -11 95 -19 105 -8 8 -17 51 -20 95 -4 43 -13 91 -21
106 -7 15 -16 56 -19 90 -8 79 -31 108 -85 108 -26 0 -41 -5 -47 -17z m103
-222 c3 -31 9 -85 14 -121 11 -81 -4 -105 -57 -96 -60 9 -65 20 -57 116 7 88
23 140 53 173 15 17 17 17 29 2 6 -10 14 -43 18 -74z"/>
<path d="M4265 8548 c-3 -12 -4 -176 -3 -363 l3 -340 30 0 30 0 5 215 c3 118
9 221 13 228 14 21 25 13 38 -25 7 -21 20 -51 30 -68 11 -16 19 -37 19 -46 0
-9 9 -27 19 -41 11 -13 23 -38 27 -54 4 -16 12 -36 19 -44 7 -8 15 -37 19 -64
3 -27 12 -57 20 -65 8 -9 18 -28 21 -44 8 -31 31 -47 69 -47 l26 0 0 224 c0
155 -3 227 -11 232 -12 7 -8 61 10 144 12 55 5 87 -20 95 -39 13 -42 -1 -35
-160 7 -151 -4 -279 -24 -299 -17 -17 -67 42 -74 87 -4 23 -14 49 -22 58 -9
10 -18 37 -21 61 -3 24 -14 54 -24 67 -11 13 -19 39 -19 57 0 22 -7 40 -20 51
-11 10 -20 29 -20 43 0 42 -10 64 -40 87 -44 36 -58 38 -65 11z"/>
<path d="M6207 8513 c-18 -20 -19 -66 -18 -454 1 -246 1 -247 23 -252 13 -4
33 0 45 9 l23 14 0 350 0 350 -28 0 c-16 0 -36 -8 -45 -17z"/>
<path d="M5865 8478 c-94 -15 -99 -16 -120 -32 l-20 -15 20 -16 c14 -10 31
-14 55 -10 79 13 148 17 152 9 18 -32 17 -65 -2 -81 -11 -10 -20 -27 -20 -39
0 -12 -9 -33 -20 -47 -11 -14 -20 -36 -20 -50 0 -13 -8 -35 -19 -48 -10 -13
-21 -40 -25 -60 -4 -21 -13 -42 -20 -48 -8 -7 -17 -27 -20 -45 -4 -19 -13 -39
-20 -46 -8 -6 -17 -29 -21 -50 -4 -22 -15 -50 -26 -64 -19 -24 -26 -71 -11
-79 16 -9 279 12 307 24 38 17 43 25 37 55 -4 24 -6 24 -28 9 -34 -22 -191
-26 -204 -5 -15 24 -12 50 10 77 11 14 20 35 20 45 0 11 9 31 20 45 11 14 20
35 20 47 0 11 9 35 19 52 10 17 22 45 25 62 4 17 14 36 22 43 8 6 14 26 14 44
0 18 9 44 20 58 11 14 23 40 26 59 4 18 12 38 20 44 7 5 14 23 16 40 l3 29
-75 1 c-41 1 -102 -3 -135 -8z"/>
<path d="M4817 8453 c-4 -3 -7 -161 -7 -350 l0 -344 48 3 47 3 3 335 c2 306 1
336 -15 348 -18 13 -65 16 -76 5z"/>
<path d="M5038 8443 c-11 -3 -18 -14 -18 -27 0 -24 29 -36 86 -36 12 0 32 -12
43 -26 20 -26 21 -39 21 -294 0 -317 2 -330 41 -330 l29 0 0 298 c0 334 2 345
60 350 66 5 80 11 80 36 0 13 -7 27 -16 30 -18 7 -300 6 -326 -1z"/>
<path d="M5517 8444 c-10 -11 -8 -660 3 -688 12 -33 47 -35 55 -3 3 12 6 172
8 354 2 270 -1 334 -11 338 -19 7 -47 6 -55 -1z"/>
<path d="M4217 7523 c-10 -15 11 -197 26 -233 8 -19 17 -76 20 -127 3 -55 12
-101 20 -115 9 -13 18 -62 22 -115 6 -77 11 -95 30 -113 38 -36 63 -23 91 45
13 33 24 79 24 103 0 24 9 64 19 90 11 26 22 68 25 93 7 58 23 102 36 94 5 -3
14 -25 20 -48 6 -23 17 -57 25 -75 8 -18 18 -65 21 -105 3 -39 14 -93 25 -119
10 -26 19 -67 19 -91 0 -45 0 -45 40 -52 21 -4 43 -4 48 -1 5 3 13 34 16 68 4
35 13 72 20 83 7 11 16 56 19 99 4 45 14 90 23 104 10 15 18 57 21 119 4 59
11 100 20 108 15 15 18 105 4 105 -5 0 -16 3 -25 6 -29 11 -55 -63 -62 -182
-3 -60 -12 -122 -20 -139 -7 -16 -18 -61 -24 -99 -17 -108 -31 -115 -55 -28
-9 31 -23 74 -31 95 -8 20 -14 59 -14 85 0 47 -4 65 -34 175 -9 32 -16 73 -16
92 0 26 -5 35 -22 41 -23 7 -48 -16 -48 -45 0 -9 -7 -25 -15 -35 -10 -13 -15
-43 -15 -83 0 -39 -8 -81 -20 -113 -11 -28 -20 -67 -21 -88 0 -51 -21 -107
-39 -107 -8 0 -24 17 -36 38 -17 30 -23 63 -28 155 -5 79 -12 122 -22 133 -8
9 -14 38 -15 75 -1 85 -10 108 -41 112 -14 2 -28 -1 -31 -5z"/>
<path d="M6283 7502 c-64 -42 -103 -80 -103 -100 0 -10 -7 -28 -16 -40 -27
-39 11 -166 55 -185 14 -7 32 -20 39 -29 7 -10 22 -18 34 -18 11 0 38 -17 59
-39 37 -36 39 -42 39 -98 0 -51 -4 -64 -27 -89 -36 -39 -96 -64 -153 -64 -61
0 -83 -21 -47 -45 22 -14 33 -15 89 -3 100 20 186 90 202 165 4 17 14 37 22
44 19 16 18 32 -6 76 -11 21 -20 43 -20 49 0 7 -17 23 -37 36 -20 12 -49 31
-63 41 -14 9 -40 24 -58 32 -38 18 -52 48 -52 113 0 55 2 58 56 95 29 20 52
27 87 27 36 0 49 4 57 20 17 31 4 40 -58 40 -46 0 -65 -6 -99 -28z"/>
<path d="M5891 7449 c-74 -5 -117 -13 -123 -21 -4 -7 -7 -168 -5 -358 l2 -345
40 -3 c22 -2 65 3 95 11 30 9 73 19 95 24 34 7 40 12 43 37 3 28 3 28 -40 23
-24 -2 -58 -10 -75 -18 -29 -12 -35 -11 -60 7 -27 21 -28 24 -31 132 -3 109
-2 110 24 131 19 15 41 21 75 21 63 0 79 7 79 36 0 22 -4 24 -43 24 -24 0 -48
-5 -54 -11 -7 -7 -20 -5 -44 9 l-34 19 -3 95 c-2 76 0 98 13 108 8 7 52 16 98
19 l82 6 3 33 c2 22 -1 32 -10 31 -7 -1 -64 -6 -127 -10z"/>
<path d="M5016 7414 c-3 -9 -6 -168 -6 -354 l0 -338 27 -5 c16 -3 31 -3 35 0
5 2 8 157 8 343 0 339 0 339 -22 354 -28 20 -34 20 -42 0z"/>
<path d="M5325 7413 c-22 -3 -45 -9 -52 -15 -10 -8 -13 -86 -13 -337 0 -179 4
-332 9 -339 4 -8 19 -12 32 -10 24 3 24 5 29 130 6 154 10 160 105 166 36 2
65 8 65 14 0 5 16 18 35 29 19 12 38 32 41 45 4 13 14 28 23 33 13 8 16 26 16
88 0 70 -3 82 -30 123 -17 25 -42 50 -55 56 -29 13 -147 23 -205 17z m127 -68
c55 -14 81 -78 67 -165 -11 -73 -47 -110 -106 -110 -33 0 -45 5 -54 22 -15 27
-20 183 -7 218 11 31 37 52 57 46 9 -3 28 -8 43 -11z"/>
</g>
</svg>
