<?xml version="1.0" standalone="no"?>
<!DOCTYPE svg PUBLIC "-//W3C//DTD SVG 20010904//EN"
 "http://www.w3.org/TR/2001/REC-SVG-20010904/DTD/svg10.dtd">
<svg version="1.0" xmlns="http://www.w3.org/2000/svg"
 width="3583.000000pt" height="3463.000000pt" viewBox="0 0 3583.000000 3463.000000"
 preserveAspectRatio="xMidYMid meet">
<metadata>
Created by potrace 1.15, written by Peter Selinger 2001-2017
</metadata>
<g transform="translate(0.000000,3463.000000) scale(0.100000,-0.100000)"
fill="#000000" stroke="none">
<path d="M11413 32956 c-14 -16 -102 -23 -485 -36 -158 -6 -293 -12 -300 -15
-7 -2 -119 -11 -248 -20 -129 -9 -248 -18 -265 -20 -16 -3 -106 -12 -200 -20
-93 -9 -224 -22 -290 -31 -66 -8 -160 -19 -210 -24 -49 -5 -166 -21 -260 -35
-93 -14 -222 -32 -285 -41 -63 -8 -119 -19 -125 -23 -5 -5 -37 -11 -70 -14
-73 -6 -375 -58 -540 -93 -66 -14 -142 -29 -170 -34 -46 -7 -127 -25 -380 -81
-49 -11 -110 -26 -135 -34 -25 -8 -70 -19 -100 -24 -30 -6 -86 -20 -125 -31
-38 -12 -146 -40 -240 -65 -93 -24 -183 -48 -200 -53 -16 -6 -64 -20 -105 -32
-217 -64 -703 -226 -920 -308 -96 -36 -202 -75 -235 -88 -33 -12 -82 -32 -110
-44 -27 -12 -111 -46 -185 -76 -74 -30 -160 -68 -190 -83 -30 -16 -89 -43
-130 -61 -74 -32 -586 -285 -605 -300 -5 -4 -55 -31 -110 -60 -55 -29 -112
-61 -127 -72 -14 -10 -28 -18 -31 -18 -3 0 -88 -51 -189 -113 -212 -132 -506
-331 -628 -426 -47 -36 -103 -79 -125 -96 -82 -61 -304 -252 -435 -374 -482
-450 -824 -900 -1060 -1396 -161 -337 -272 -696 -310 -1003 -14 -110 -20 -132
-36 -132 -12 0 -14 -1027 -14 -7504 0 -7374 0 -7504 19 -7509 16 -4 20 -17 26
-73 19 -197 123 -608 199 -786 171 -399 266 -572 481 -878 89 -127 290 -371
420 -510 453 -484 1135 -1000 1805 -1364 58 -31 121 -66 140 -78 58 -34 563
-285 590 -293 14 -4 66 -27 115 -50 50 -24 153 -69 230 -100 77 -31 178 -73
225 -92 47 -19 132 -52 190 -73 58 -21 134 -50 170 -65 36 -14 99 -37 140 -51
41 -13 89 -29 105 -35 58 -20 361 -117 480 -154 66 -20 147 -45 180 -56 76
-24 513 -138 665 -174 158 -36 317 -74 363 -86 21 -6 73 -17 115 -25 42 -8
120 -23 172 -34 203 -42 654 -121 855 -151 83 -11 182 -28 220 -35 39 -8 126
-19 194 -25 68 -5 128 -12 132 -14 14 -9 276 -35 356 -35 45 0 83 -4 85 -9 5
-13 600 -61 1033 -82 531 -27 1509 -27 2025 0 471 24 1030 68 1044 82 6 5 39
9 75 9 65 0 369 28 380 35 4 2 60 8 126 15 66 6 134 15 150 20 17 5 82 16 145
25 255 35 326 46 340 50 9 3 81 16 160 29 280 48 377 67 790 156 302 65 984
241 1115 289 17 6 98 31 180 57 83 25 197 62 255 81 58 20 119 39 135 44 17 4
59 19 95 33 103 40 157 60 290 110 460 173 982 411 1410 642 303 163 770 463
1035 664 138 104 201 155 385 308 129 108 405 375 497 482 21 24 45 51 53 60
51 54 152 172 181 211 19 25 59 79 90 120 189 251 381 582 483 834 20 50 41
99 46 110 24 51 101 289 129 400 45 178 61 252 61 282 0 37 16 83 28 83 34 0
238 -230 409 -460 119 -161 304 -427 341 -490 14 -25 45 -72 67 -105 44 -63
118 -188 205 -345 29 -52 59 -102 65 -110 7 -8 57 -103 112 -210 221 -432 472
-889 611 -1115 17 -27 46 -75 63 -105 18 -30 40 -66 50 -80 9 -14 36 -56 60
-95 49 -79 302 -457 370 -553 57 -81 303 -414 349 -472 448 -567 759 -916
1204 -1348 49 -48 119 -116 155 -151 279 -271 828 -726 1191 -987 119 -85 484
-335 595 -407 22 -14 48 -33 58 -41 9 -9 22 -16 27 -16 6 0 23 -8 38 -19 109
-76 573 -343 827 -476 361 -189 712 -351 1110 -511 116 -46 224 -90 240 -98
17 -8 116 -44 220 -81 105 -36 213 -74 240 -85 28 -10 61 -21 75 -25 14 -3 41
-12 60 -20 72 -27 399 -123 625 -183 481 -127 891 -213 1230 -257 55 -7 127
-18 160 -24 33 -5 114 -15 180 -21 130 -11 155 -16 155 -31 0 -5 46 -9 104 -9
80 0 105 3 109 14 3 8 32 20 64 26 32 7 101 33 153 58 131 64 239 169 298 292
56 115 72 183 72 310 0 109 -13 168 -85 405 -25 83 -57 197 -136 478 -59 210
-164 645 -224 927 -14 69 -32 152 -40 185 -28 121 -88 412 -105 505 -37 214
-64 369 -81 475 -50 303 -61 378 -74 485 -8 63 -17 125 -20 138 -7 28 -39 299
-60 502 -37 358 -46 454 -55 590 -6 80 -12 163 -15 185 -3 22 -15 216 -26 430
-26 491 -36 1401 -20 1810 15 383 39 852 50 995 6 63 13 158 16 210 3 52 10
138 16 190 5 52 16 172 24 265 19 232 51 547 70 680 8 61 19 148 25 195 13
114 45 364 69 530 11 74 29 200 40 280 11 80 31 219 45 310 14 91 31 197 36
235 15 93 37 230 55 340 9 50 20 124 25 165 6 41 17 113 25 160 16 92 62 391
96 615 11 77 27 181 34 230 16 104 67 479 90 670 9 72 20 191 25 265 5 74 15
207 21 295 24 340 -10 745 -88 1030 -123 451 -418 794 -783 912 -143 47 -209
56 -420 61 -170 3 -234 1 -375 -17 -93 -12 -199 -28 -235 -36 -36 -8 -90 -17
-120 -20 -30 -3 -91 -12 -135 -20 -322 -58 -347 -60 -670 -60 -302 0 -313 1
-435 28 -248 55 -338 85 -525 177 -259 128 -429 254 -681 505 -179 178 -282
299 -406 471 -79 109 -219 319 -273 409 -22 37 -49 81 -60 99 -45 69 -157 271
-245 441 -51 99 -96 185 -100 190 -4 6 -33 60 -64 121 -67 134 -316 569 -450
789 -229 373 -516 802 -761 1135 -44 60 -107 146 -140 191 -33 45 -89 120
-125 165 -36 46 -108 137 -160 203 -52 67 -98 121 -102 121 -5 0 -8 5 -8 10 0
11 -221 284 -361 445 -308 356 -354 408 -618 695 -167 182 -752 784 -806 829
-22 18 -94 86 -160 150 -66 64 -176 168 -245 231 -68 63 -133 124 -145 135
-12 11 -61 56 -111 100 -49 44 -93 85 -99 91 -9 10 -234 207 -405 355 -96 83
-421 353 -530 441 -226 182 -331 266 -380 303 -29 22 -87 67 -130 100 -375
291 -817 609 -1238 892 -135 91 -187 133 -310 254 -230 228 -343 330 -532 483
-361 293 -691 519 -1095 751 -199 114 -559 300 -735 380 -63 29 -153 71 -200
93 -135 63 -193 89 -220 97 -14 4 -29 11 -35 15 -5 4 -28 13 -50 20 -22 7 -44
16 -50 20 -33 26 -552 216 -880 322 -362 118 -573 182 -750 229 -66 17 -163
42 -215 56 -52 13 -120 31 -150 38 -30 8 -75 19 -100 25 -127 31 -219 52 -355
80 -82 17 -179 37 -215 45 -125 27 -445 86 -605 110 -49 8 -115 19 -145 24
-147 26 -490 76 -665 96 -227 27 -830 85 -980 94 -82 6 -217 15 -300 20 -82 6
-269 15 -415 21 -218 8 -267 12 -276 25 -10 13 -77 15 -540 15 -429 -1 -531
-3 -541 -14z m1377 -1384 c15 -7 148 -16 330 -22 168 -5 323 -15 345 -21 22
-5 122 -14 222 -19 101 -5 198 -13 215 -19 18 -5 96 -15 173 -21 77 -6 178
-17 225 -25 47 -8 134 -19 193 -25 59 -5 116 -14 125 -19 9 -5 62 -12 117 -16
55 -4 116 -13 135 -21 19 -7 86 -18 148 -23 62 -6 120 -15 130 -20 9 -5 62
-14 117 -21 55 -7 118 -18 140 -25 22 -7 69 -16 105 -20 36 -4 79 -13 96 -20
17 -7 60 -16 95 -20 35 -4 75 -13 89 -20 14 -7 50 -16 80 -20 30 -3 81 -15
113 -26 31 -10 71 -19 87 -19 17 0 47 -7 66 -15 19 -8 59 -18 87 -21 29 -4 76
-15 106 -26 30 -10 62 -18 72 -18 10 0 40 -7 66 -16 26 -9 73 -22 103 -29 30
-7 69 -17 85 -23 57 -21 130 -43 185 -57 30 -8 96 -26 145 -40 50 -14 115 -33
145 -41 30 -9 69 -22 87 -30 17 -8 39 -14 48 -14 10 0 36 -8 59 -19 23 -10 59
-23 81 -29 22 -5 72 -22 110 -37 39 -14 90 -33 115 -41 25 -8 59 -21 77 -29
17 -8 38 -15 47 -15 9 0 33 -9 53 -20 21 -11 44 -20 51 -20 7 0 30 -9 50 -19
20 -11 75 -34 122 -51 47 -18 90 -36 95 -40 6 -4 24 -11 42 -14 17 -4 37 -13
43 -21 6 -7 26 -16 44 -19 19 -4 39 -13 45 -20 7 -8 24 -17 39 -20 15 -4 45
-15 67 -26 22 -10 69 -31 105 -46 36 -14 72 -32 80 -40 8 -7 27 -15 42 -19 15
-4 32 -13 39 -21 6 -8 18 -14 25 -14 13 0 302 -146 419 -211 28 -15 61 -34 75
-41 14 -7 46 -27 72 -45 26 -18 62 -39 80 -48 37 -18 55 -28 117 -70 24 -17
56 -36 70 -44 14 -7 44 -28 66 -46 22 -17 65 -46 95 -64 30 -17 82 -52 115
-77 33 -24 71 -52 85 -61 68 -47 322 -255 394 -322 162 -152 206 -198 263
-282 32 -47 88 -113 125 -146 71 -64 168 -174 168 -191 0 -5 6 -15 14 -21 12
-10 48 -62 125 -181 40 -61 191 -382 191 -405 0 -8 9 -34 19 -57 25 -57 58
-172 66 -228 3 -25 14 -79 23 -120 28 -122 21 -471 -12 -660 -14 -80 -32 -162
-40 -182 -9 -21 -16 -48 -16 -60 0 -13 -9 -40 -20 -61 -11 -20 -20 -44 -20
-53 0 -9 -6 -28 -14 -42 -8 -15 -26 -54 -41 -87 -125 -276 -279 -512 -468
-719 -16 -17 -40 -47 -53 -66 -29 -42 -254 -264 -344 -340 -36 -30 -70 -59
-76 -65 -39 -34 -69 -58 -154 -124 -52 -40 -134 -102 -183 -138 -48 -36 -87
-69 -87 -74 0 -5 -5 -9 -11 -9 -6 0 -56 -29 -110 -65 -54 -36 -102 -65 -107
-65 -5 0 -15 -6 -21 -14 -7 -8 -57 -41 -112 -73 -55 -32 -116 -68 -137 -80
-20 -13 -55 -32 -77 -43 -22 -11 -71 -38 -110 -60 -38 -23 -88 -50 -110 -61
-22 -11 -87 -45 -144 -74 -57 -30 -109 -55 -116 -55 -7 0 -18 -6 -24 -14 -7
-8 -25 -18 -41 -21 -16 -3 -38 -15 -51 -26 -12 -10 -29 -19 -38 -19 -9 0 -25
-6 -36 -14 -18 -12 -184 -86 -310 -138 -27 -11 -69 -29 -93 -39 -23 -10 -48
-19 -55 -19 -6 0 -24 -6 -39 -14 -14 -8 -43 -19 -65 -26 -21 -7 -47 -19 -58
-26 -11 -8 -26 -14 -34 -14 -8 0 -33 -8 -55 -19 -40 -18 -98 -39 -186 -66 -78
-24 -144 -47 -186 -66 -23 -11 -52 -19 -65 -19 -13 0 -37 -9 -54 -20 -16 -11
-41 -20 -55 -20 -14 0 -34 -6 -45 -14 -20 -13 -83 -33 -200 -62 -33 -9 -73
-22 -90 -30 -16 -8 -50 -18 -75 -23 -25 -5 -63 -16 -85 -25 -22 -8 -53 -15
-70 -16 -16 0 -43 -7 -59 -15 -16 -8 -47 -18 -70 -21 -22 -4 -52 -13 -66 -20
-14 -7 -55 -18 -90 -24 -36 -6 -73 -16 -83 -21 -10 -6 -53 -16 -97 -24 -44 -8
-88 -18 -98 -24 -10 -5 -47 -13 -82 -17 -36 -4 -74 -13 -85 -20 -11 -7 -47
-15 -80 -19 -33 -4 -78 -13 -100 -20 -22 -8 -76 -19 -119 -26 -44 -6 -91 -15
-105 -21 -14 -5 -68 -14 -119 -19 -51 -5 -102 -14 -114 -20 -12 -7 -57 -15
-99 -20 -42 -4 -98 -15 -123 -23 -26 -9 -66 -16 -89 -16 -24 0 -70 -7 -102
-16 -33 -9 -112 -22 -175 -29 -63 -8 -136 -18 -161 -24 -26 -5 -102 -15 -170
-21 -68 -6 -140 -15 -161 -21 -21 -5 -104 -14 -185 -19 -82 -4 -161 -14 -178
-20 -16 -7 -113 -16 -215 -20 -102 -5 -201 -14 -220 -20 -20 -6 -181 -16 -370
-21 -216 -7 -344 -15 -359 -22 -35 -17 -1478 -17 -1512 0 -16 8 -142 15 -364
22 -204 6 -354 15 -375 22 -19 6 -114 15 -210 19 -96 5 -191 13 -210 19 -19 6
-98 16 -175 21 -77 6 -178 17 -225 24 -47 8 -123 17 -170 21 -47 4 -112 13
-145 20 -33 8 -94 17 -135 21 -41 3 -100 13 -130 21 -30 8 -93 18 -140 23 -47
5 -110 16 -140 25 -30 8 -72 15 -93 15 -20 0 -53 7 -73 15 -19 8 -76 19 -127
24 -51 5 -104 14 -118 19 -14 6 -61 15 -105 21 -43 7 -97 18 -119 26 -22 7
-69 17 -105 21 -36 3 -74 13 -85 20 -11 8 -33 14 -50 14 -17 0 -58 7 -90 16
-64 18 -179 46 -285 70 -36 8 -83 21 -105 29 -22 7 -57 16 -77 20 -20 3 -50
12 -65 20 -15 8 -39 15 -53 15 -14 0 -52 9 -85 20 -105 34 -230 70 -245 70 -8
0 -28 7 -44 15 -16 9 -46 20 -65 25 -58 14 -133 41 -173 61 -20 11 -47 19 -59
19 -12 0 -40 8 -63 19 -23 10 -59 23 -81 29 -73 19 -233 75 -278 98 -16 8 -33
14 -39 14 -9 0 -97 36 -185 76 -17 8 -37 14 -45 14 -7 0 -25 6 -40 14 -14 8
-43 19 -65 26 -21 7 -49 18 -63 25 -14 7 -59 27 -100 45 -41 18 -106 47 -145
65 -38 18 -81 37 -95 44 -14 6 -32 15 -40 20 -8 5 -99 51 -202 102 -236 118
-232 116 -422 224 -191 109 -178 101 -251 149 -33 21 -91 59 -130 84 -38 25
-82 53 -97 63 -15 11 -29 19 -32 19 -3 0 -16 10 -29 23 -14 12 -53 42 -88 67
-35 25 -71 51 -79 58 -8 7 -67 54 -130 104 -63 49 -117 93 -120 96 -3 4 -32
29 -65 56 -103 86 -304 287 -387 389 -44 54 -88 105 -98 115 -27 25 -147 188
-178 241 -14 25 -41 66 -58 91 -39 55 -105 180 -145 275 -16 39 -36 84 -43
100 -24 53 -68 189 -90 280 -53 215 -51 197 -51 490 0 234 3 288 17 330 9 28
19 74 23 104 3 30 12 66 19 80 7 14 17 44 21 66 4 22 13 51 20 65 7 14 20 45
28 70 29 87 46 126 112 254 198 385 537 778 985 1140 180 145 217 172 455 330
177 117 203 134 271 174 22 13 57 34 79 47 22 14 51 30 65 37 14 7 40 23 59
35 19 13 163 87 320 164 157 78 302 150 322 160 20 11 43 19 50 19 8 0 37 12
64 25 28 14 55 25 61 25 6 0 17 6 23 14 7 8 27 17 45 20 19 4 39 13 46 21 7 8
17 15 23 15 6 0 29 9 51 19 23 11 59 26 81 34 22 8 65 25 95 37 30 12 73 28
95 36 22 8 52 21 67 29 14 8 34 15 45 15 10 0 32 7 48 16 17 9 48 22 70 29 22
8 86 30 143 49 57 20 110 36 118 36 8 0 32 9 54 20 22 11 49 20 60 20 12 0 35
7 52 16 32 16 85 33 203 63 39 9 79 22 90 28 11 6 40 14 65 18 25 4 55 13 66
20 12 8 46 17 75 21 30 3 64 12 76 20 12 7 45 18 75 23 29 5 73 16 98 24 57
19 114 33 220 56 47 10 98 24 113 30 16 6 39 11 53 11 13 0 50 9 81 19 32 11
87 22 123 26 36 4 70 11 77 16 6 6 42 15 80 20 37 6 86 17 108 24 22 8 79 19
127 24 49 6 96 14 105 20 10 5 63 14 118 21 55 6 116 17 135 24 19 8 77 17
128 21 51 3 109 13 127 21 19 8 54 14 77 14 24 0 74 7 113 15 38 8 119 20 180
25 60 6 155 17 210 25 55 8 157 19 226 25 69 6 141 15 160 21 19 5 115 14 214
19 99 5 196 14 215 20 19 6 168 15 330 20 162 6 318 13 345 16 162 17 349 21
960 19 479 -1 687 -5 705 -13z m9958 -4351 c20 -11 57 -38 82 -61 25 -23 70
-60 100 -83 30 -23 100 -82 155 -131 55 -49 111 -96 125 -105 14 -9 30 -21 35
-27 10 -11 167 -152 249 -224 74 -64 140 -124 276 -251 74 -69 164 -152 200
-185 268 -246 731 -710 1040 -1043 63 -69 126 -136 140 -151 92 -100 196 -215
246 -274 33 -38 95 -110 140 -160 78 -88 228 -269 308 -371 22 -28 44 -54 51
-60 6 -5 35 -41 65 -80 62 -81 214 -273 233 -294 40 -47 107 -138 107 -146 0
-5 12 -21 27 -35 14 -14 43 -50 63 -81 20 -31 52 -76 71 -100 19 -24 50 -66
69 -95 19 -28 53 -78 75 -110 21 -33 42 -61 45 -64 14 -14 60 -80 60 -88 0 -4
16 -26 35 -48 20 -21 51 -66 70 -100 19 -34 41 -67 50 -74 8 -7 15 -16 15 -21
0 -5 17 -34 39 -66 81 -122 131 -203 131 -211 0 -5 7 -15 15 -22 14 -12 48
-67 108 -173 10 -18 28 -49 40 -69 12 -20 46 -79 76 -130 29 -51 64 -109 76
-128 31 -48 71 -117 95 -165 11 -22 40 -76 64 -120 24 -44 71 -132 104 -195
33 -63 67 -128 76 -145 9 -16 16 -33 16 -36 0 -4 25 -51 56 -105 31 -55 60
-108 66 -119 5 -11 20 -38 33 -60 14 -22 34 -58 45 -80 36 -69 49 -91 103
-173 28 -44 60 -93 69 -109 66 -109 237 -360 291 -427 18 -23 46 -61 62 -86
17 -25 35 -49 41 -55 16 -15 88 -107 106 -135 39 -62 470 -502 617 -631 40
-35 79 -69 85 -75 6 -6 38 -29 71 -52 33 -24 87 -62 120 -87 33 -24 80 -56
105 -71 25 -15 72 -45 104 -66 85 -56 369 -208 389 -208 6 0 28 -9 51 -19 100
-47 156 -71 165 -71 6 0 28 -9 48 -20 21 -11 48 -20 60 -20 13 0 40 -9 60 -20
21 -11 51 -20 68 -20 16 -1 48 -7 70 -15 22 -8 72 -20 110 -26 39 -6 93 -17
120 -24 28 -8 91 -17 140 -20 50 -4 118 -13 153 -21 89 -20 661 -20 747 0 33
8 110 17 170 21 61 4 137 13 170 20 33 8 110 19 170 24 61 6 132 18 159 26 27
8 79 15 115 15 36 1 84 8 106 16 22 8 72 17 111 21 l71 6 24 -34 c24 -34 24
-34 27 -351 2 -211 -1 -335 -8 -370 -7 -29 -16 -116 -21 -193 -5 -77 -14 -167
-19 -200 -6 -33 -17 -122 -25 -199 -8 -76 -19 -155 -25 -175 -5 -20 -15 -85
-21 -146 -6 -60 -16 -132 -24 -160 -7 -27 -16 -85 -20 -127 -3 -42 -12 -98
-19 -125 -8 -26 -17 -84 -21 -128 -3 -44 -12 -100 -20 -125 -7 -25 -17 -85
-20 -134 -4 -49 -13 -105 -20 -125 -7 -20 -15 -74 -19 -121 -4 -47 -13 -110
-21 -140 -8 -30 -19 -102 -25 -158 -6 -57 -16 -116 -21 -130 -6 -15 -15 -70
-20 -121 -5 -52 -15 -113 -23 -135 -8 -23 -17 -80 -20 -127 -2 -47 -11 -103
-20 -125 -8 -21 -17 -85 -20 -140 -3 -56 -12 -119 -19 -140 -8 -22 -17 -84
-20 -139 -4 -55 -14 -138 -22 -185 -8 -46 -19 -139 -25 -206 -5 -67 -14 -133
-20 -148 -5 -14 -14 -90 -19 -169 -5 -78 -14 -154 -20 -169 -5 -14 -14 -95
-20 -179 -6 -84 -15 -168 -21 -188 -5 -20 -14 -112 -20 -206 -6 -93 -15 -199
-20 -235 -6 -36 -17 -184 -25 -330 -8 -146 -19 -279 -24 -296 -5 -18 -12 -173
-16 -345 -3 -173 -13 -376 -21 -451 -20 -195 -20 -1370 0 -1555 8 -70 17 -258
21 -417 3 -159 10 -310 16 -335 5 -25 16 -147 24 -271 19 -293 41 -542 65
-710 10 -74 21 -179 24 -233 3 -53 10 -106 16 -117 6 -11 15 -73 20 -137 5
-65 15 -147 24 -183 8 -36 17 -103 21 -150 4 -47 13 -113 21 -147 8 -35 18
-104 23 -155 5 -51 16 -118 25 -148 9 -30 16 -81 16 -113 0 -32 7 -71 15 -87
8 -16 19 -67 24 -113 4 -45 13 -92 19 -103 6 -11 15 -55 21 -97 6 -43 15 -86
20 -95 5 -10 14 -53 20 -96 6 -43 18 -101 25 -130 8 -28 18 -75 21 -105 4 -30
13 -68 20 -85 7 -17 16 -58 20 -91 4 -33 13 -74 20 -92 8 -17 17 -58 20 -90 4
-32 13 -69 20 -83 7 -14 16 -50 20 -80 4 -30 11 -63 17 -73 10 -20 47 -173 55
-231 4 -26 1 -41 -8 -47 -23 -14 -90 -10 -164 10 -38 11 -95 24 -125 30 -57
10 -101 21 -210 52 -71 21 -155 43 -240 63 -30 8 -72 21 -92 30 -21 9 -45 16
-55 16 -10 1 -36 9 -58 20 -22 11 -49 20 -60 20 -11 0 -38 9 -61 19 -23 10
-64 22 -93 26 -28 4 -51 11 -51 16 0 4 -19 13 -42 19 -46 12 -133 43 -183 66
-16 7 -48 18 -70 24 -22 6 -49 17 -59 25 -11 8 -31 15 -44 15 -13 0 -35 9 -49
20 -14 11 -35 20 -47 20 -12 0 -38 9 -59 20 -20 11 -43 20 -49 20 -7 0 -25 6
-40 14 -14 8 -43 19 -65 26 -21 7 -54 21 -73 31 -19 11 -39 19 -44 19 -5 0
-30 9 -55 21 -85 39 -232 105 -251 113 -8 3 -22 10 -30 16 -8 5 -26 14 -40 20
-14 5 -32 14 -40 19 -8 4 -42 20 -75 35 -33 15 -67 31 -75 36 -8 5 -51 27 -95
50 -239 123 -438 231 -464 251 -13 11 -29 19 -36 19 -7 0 -17 6 -23 13 -6 6
-41 28 -79 47 -37 19 -89 49 -115 67 -26 18 -51 33 -55 33 -3 0 -36 20 -72 43
-36 24 -147 97 -246 163 -99 65 -208 140 -243 166 -35 27 -65 48 -68 48 -6 0
-144 101 -253 185 -42 33 -97 73 -122 89 -24 17 -48 35 -54 41 -5 6 -43 37
-82 69 -40 32 -73 62 -73 67 0 5 -5 9 -11 9 -7 0 -35 20 -63 44 -28 24 -66 56
-85 72 -95 81 -227 197 -316 277 -120 109 -563 552 -695 696 -52 57 -100 108
-106 115 -53 56 -324 378 -361 428 -13 17 -44 55 -70 85 -27 30 -52 62 -57 71
-5 10 -42 58 -82 107 -73 91 -106 136 -189 255 -25 36 -63 90 -85 120 -51 69
-186 272 -191 285 -2 6 -19 31 -37 55 -48 66 -122 180 -122 189 0 5 -10 21
-22 37 -40 49 -156 242 -255 422 -23 42 -52 93 -63 112 -37 61 -108 192 -145
267 -19 40 -39 74 -44 77 -5 3 -12 18 -16 33 -3 14 -15 38 -26 51 -10 14 -19
32 -19 40 0 9 -7 23 -15 32 -9 10 -42 69 -74 131 -124 245 -214 415 -227 429
-7 8 -17 26 -23 40 -6 14 -15 32 -21 40 -10 15 -103 178 -130 228 -8 15 -31
52 -50 82 -19 30 -40 62 -45 71 -12 18 -161 240 -235 348 -42 61 -159 220
-207 281 -88 112 -145 182 -161 198 -11 11 -38 44 -60 74 -69 93 -360 379
-494 484 -126 99 -203 155 -268 197 -49 32 -303 157 -318 157 -7 0 -29 9 -49
20 -21 11 -50 20 -65 20 -16 0 -33 9 -42 22 -14 20 -16 663 -16 6601 0 4515 3
6584 10 6598 13 24 31 24 78 0z m-19999 -2896 c31 -29 108 -95 171 -146 63
-51 118 -98 122 -104 4 -7 26 -25 50 -41 24 -15 63 -45 88 -65 69 -55 220
-169 225 -169 2 0 25 -15 51 -32 54 -39 169 -114 239 -158 28 -17 70 -44 95
-60 25 -16 54 -34 65 -40 11 -6 40 -23 65 -39 25 -16 86 -52 135 -81 50 -28
97 -55 105 -60 8 -6 33 -19 55 -30 22 -11 58 -31 80 -44 55 -32 552 -281 593
-296 17 -7 32 -16 32 -21 0 -5 8 -9 17 -9 9 0 36 -9 60 -20 71 -33 125 -57
193 -85 36 -15 83 -36 106 -46 23 -10 45 -19 50 -19 5 0 32 -12 59 -25 28 -14
57 -25 66 -25 9 0 22 -6 28 -14 7 -8 28 -17 49 -21 20 -3 46 -12 57 -19 11 -8
36 -17 55 -21 19 -4 51 -16 70 -26 19 -11 41 -19 49 -19 7 0 32 -8 55 -19 115
-52 138 -61 154 -61 9 0 33 -8 52 -19 19 -10 53 -21 75 -25 21 -4 51 -13 65
-21 14 -7 43 -16 65 -20 22 -4 45 -11 51 -16 11 -9 81 -30 215 -64 31 -8 69
-22 85 -30 16 -8 40 -15 54 -15 14 0 43 -9 65 -20 22 -11 47 -19 56 -20 9 0
36 -7 60 -16 24 -8 73 -21 109 -29 104 -22 192 -46 230 -61 19 -7 53 -16 75
-19 22 -4 60 -13 85 -21 25 -7 77 -20 115 -28 161 -34 182 -39 225 -53 25 -8
79 -20 121 -26 42 -7 83 -18 90 -24 8 -6 48 -14 89 -18 41 -4 89 -13 105 -20
17 -8 59 -17 95 -20 36 -4 79 -13 95 -20 17 -6 68 -15 113 -19 46 -4 104 -14
130 -21 26 -8 88 -19 139 -25 51 -5 104 -15 118 -20 15 -6 74 -14 133 -20 59
-5 123 -14 142 -20 19 -6 78 -15 130 -20 52 -6 115 -16 140 -24 25 -8 101 -17
170 -20 69 -3 150 -12 180 -20 30 -9 89 -16 130 -17 41 0 134 -7 205 -14 72
-8 204 -19 295 -25 91 -6 228 -15 305 -21 523 -38 1218 -50 1970 -33 347 7
648 18 671 24 23 5 137 14 255 20 118 6 268 17 335 25 66 9 192 19 280 24 87
5 175 15 194 21 19 6 94 14 165 19 72 4 140 13 152 20 12 6 71 15 130 20 59 5
120 14 136 20 15 6 74 15 130 20 57 6 115 15 130 20 14 6 71 15 125 20 54 6
124 17 155 25 31 8 89 18 129 22 40 4 86 13 103 20 16 6 62 15 100 19 39 4 81
13 95 20 14 7 54 16 90 20 36 4 77 13 91 20 14 8 54 17 90 21 35 4 75 11 89
17 25 10 135 36 270 64 41 8 89 21 105 28 17 7 55 16 85 20 30 4 64 12 75 18
11 6 47 16 80 23 73 16 156 37 250 65 39 12 102 30 140 41 39 11 88 27 110 35
22 8 63 21 90 28 28 7 64 18 80 24 55 19 130 42 180 56 28 7 67 20 87 29 21 9
46 16 56 16 10 0 35 9 57 20 22 11 47 20 57 20 10 0 32 9 50 20 18 11 41 20
51 20 9 0 34 9 54 20 21 11 44 20 52 20 7 0 32 9 55 19 23 10 75 31 116 46 41
16 93 36 116 46 22 11 45 19 51 19 6 0 24 7 40 15 15 8 62 28 103 45 97 40
103 43 184 79 37 17 74 31 81 31 7 0 18 7 25 15 7 8 27 17 46 21 18 3 38 12
45 20 6 8 16 14 22 14 6 0 31 10 56 21 69 32 243 117 271 133 14 8 68 36 120
62 164 83 317 168 519 291 20 12 65 39 101 59 36 21 69 41 75 46 5 5 87 59
180 121 178 117 492 349 579 428 28 25 76 64 108 87 31 23 87 71 125 107 72
69 104 85 128 65 13 -11 15 -318 15 -2565 0 -2344 1 -2560 17 -2636 21 -109
23 -575 2 -654 -10 -41 -14 -585 -19 -2950 -4 -2304 -8 -2907 -18 -2935 -7
-19 -17 -71 -23 -115 -9 -70 -27 -144 -59 -237 -27 -78 -34 -96 -51 -134 -11
-23 -19 -45 -19 -50 0 -17 -135 -279 -174 -339 -21 -33 -51 -78 -65 -100 -14
-22 -29 -44 -34 -50 -4 -5 -30 -41 -58 -80 -29 -38 -57 -77 -65 -85 -7 -8 -21
-24 -31 -35 -10 -11 -52 -61 -94 -110 -94 -110 -328 -339 -429 -420 -41 -33
-88 -72 -103 -87 -16 -16 -54 -45 -85 -65 -31 -21 -70 -50 -87 -65 -52 -47
-355 -258 -372 -258 -6 0 -16 -7 -23 -15 -12 -14 -72 -52 -173 -108 -18 -9
-50 -29 -72 -43 -22 -13 -53 -32 -70 -40 -16 -8 -48 -26 -70 -39 -38 -23 -61
-35 -95 -50 -8 -3 -36 -18 -62 -33 -178 -101 -774 -382 -811 -382 -9 0 -18 -4
-22 -9 -3 -5 -29 -17 -58 -27 -28 -9 -61 -23 -72 -30 -11 -8 -29 -14 -40 -14
-11 0 -30 -7 -43 -15 -12 -9 -41 -22 -64 -30 -24 -7 -74 -25 -113 -40 -38 -14
-86 -30 -105 -36 -19 -5 -46 -16 -60 -23 -14 -8 -43 -17 -65 -21 -22 -4 -47
-13 -55 -20 -8 -7 -34 -16 -57 -20 -23 -3 -59 -15 -80 -26 -20 -10 -44 -19
-52 -19 -7 0 -32 -8 -55 -19 -40 -18 -73 -28 -191 -58 -33 -8 -71 -21 -85 -28
-14 -7 -45 -16 -70 -20 -25 -4 -56 -13 -70 -20 -14 -7 -44 -16 -65 -20 -22 -3
-56 -12 -75 -20 -35 -13 -112 -34 -229 -61 -35 -8 -71 -19 -80 -23 -9 -5 -46
-14 -81 -21 -36 -6 -81 -17 -100 -24 -19 -7 -62 -17 -95 -21 -33 -4 -69 -12
-80 -18 -11 -6 -51 -16 -90 -23 -123 -22 -238 -45 -293 -61 -30 -8 -88 -18
-131 -22 -42 -5 -86 -13 -98 -20 -12 -6 -61 -15 -110 -21 -48 -5 -106 -16
-128 -24 -22 -8 -60 -15 -84 -16 -24 0 -80 -9 -125 -19 -44 -10 -117 -22 -160
-26 -44 -3 -107 -12 -140 -20 -34 -8 -108 -17 -166 -21 -58 -3 -127 -12 -155
-20 -27 -8 -104 -17 -170 -20 -66 -3 -144 -12 -173 -20 -29 -8 -112 -17 -185
-20 -72 -3 -166 -12 -207 -20 -41 -7 -181 -18 -310 -24 -129 -5 -261 -14 -292
-20 -151 -28 -1894 -28 -2048 0 -30 6 -162 15 -292 20 -131 6 -249 15 -264 20
-14 6 -108 15 -208 21 -99 5 -203 16 -231 23 -27 8 -104 17 -170 20 -65 4
-142 13 -170 21 -27 7 -111 18 -186 24 -74 6 -147 14 -161 20 -14 5 -59 13
-99 16 -41 4 -111 15 -155 26 -45 10 -104 19 -132 19 -28 0 -79 9 -114 20 -34
11 -80 20 -100 20 -21 0 -64 9 -95 19 -32 11 -89 22 -128 24 -38 3 -86 12
-105 20 -19 8 -66 18 -104 22 -38 4 -85 13 -105 20 -20 7 -66 16 -101 20 -36
4 -79 13 -97 20 -18 8 -54 17 -80 21 -26 4 -59 11 -73 17 -14 5 -63 18 -110
28 -125 27 -251 61 -360 96 -25 8 -72 20 -105 28 -33 7 -73 18 -90 23 -67 24
-170 56 -320 97 -33 10 -65 21 -70 26 -6 4 -33 13 -60 19 -27 6 -56 17 -65 25
-8 7 -36 16 -62 20 -26 4 -53 13 -59 21 -6 8 -22 14 -36 14 -13 0 -50 11 -83
25 -33 14 -65 25 -72 25 -7 1 -31 9 -53 20 -22 11 -49 19 -59 20 -10 0 -37 8
-60 19 -23 10 -66 29 -96 41 -30 12 -73 30 -95 40 -22 10 -89 37 -150 60 -60
23 -135 53 -165 67 -30 14 -73 33 -95 43 -78 35 -591 292 -630 315 -22 13 -51
29 -65 34 -14 6 -32 15 -40 21 -8 5 -60 35 -115 67 -55 31 -111 64 -125 74
-14 9 -52 34 -85 55 -202 127 -260 166 -363 245 -26 19 -88 67 -138 105 -315
238 -596 517 -821 815 -67 89 -123 174 -123 187 0 6 -6 15 -13 19 -7 4 -23 24
-34 43 -40 65 -163 313 -163 328 0 8 -6 26 -14 40 -31 59 -77 204 -98 307 -5
28 -17 79 -26 115 -16 60 -17 495 -20 5924 -2 4493 1 5862 10 5873 19 23 57 6
117 -52z"/>
<path d="M11945 29303 c-356 -9 -604 -22 -621 -31 -10 -5 -94 -15 -187 -21
-92 -6 -176 -15 -187 -21 -11 -6 -61 -14 -112 -19 -51 -5 -105 -14 -121 -20
-15 -6 -69 -15 -120 -21 -50 -6 -112 -17 -137 -25 -25 -8 -74 -19 -110 -24
-67 -10 -175 -39 -245 -65 -22 -8 -50 -15 -63 -16 -13 0 -35 -6 -50 -14 -15
-8 -46 -18 -67 -21 -22 -4 -53 -15 -70 -23 -16 -8 -50 -21 -75 -28 -69 -19
-132 -43 -162 -59 -14 -8 -32 -15 -40 -15 -14 0 -328 -156 -403 -201 -22 -13
-56 -33 -74 -44 -118 -70 -336 -268 -427 -386 -74 -98 -140 -236 -164 -344 -5
-22 -15 -65 -21 -95 -7 -30 -12 -93 -12 -140 0 -86 27 -275 42 -295 5 -5 14
-28 21 -50 11 -38 43 -112 62 -145 5 -8 15 -29 22 -45 29 -62 256 -292 355
-360 107 -74 210 -142 222 -149 8 -4 32 -18 54 -31 22 -14 51 -30 65 -36 14
-6 32 -15 40 -20 8 -5 31 -16 50 -25 84 -37 118 -52 170 -74 30 -12 73 -31 96
-41 23 -11 49 -19 58 -19 9 0 33 -9 53 -20 21 -11 46 -20 56 -20 10 0 35 -9
57 -20 22 -11 50 -20 63 -20 13 0 48 -8 78 -19 31 -10 75 -22 99 -26 23 -4 57
-13 74 -20 17 -7 58 -16 91 -20 33 -4 75 -14 93 -21 18 -7 57 -16 85 -20 29
-3 75 -12 102 -19 28 -8 88 -19 135 -25 46 -6 91 -15 100 -20 9 -5 75 -14 146
-20 71 -6 161 -17 199 -25 39 -7 135 -17 214 -20 82 -3 153 -11 165 -18 30
-17 1182 -17 1212 0 13 7 89 15 195 18 96 4 197 13 224 20 28 8 102 18 165 24
64 5 127 14 141 19 14 6 68 15 120 22 52 6 117 17 144 25 28 7 75 17 105 20
30 4 63 12 73 17 10 5 50 15 90 22 79 15 167 36 267 65 36 10 83 23 105 29 56
14 125 40 157 57 14 8 34 15 45 15 10 0 34 8 53 19 19 10 51 21 71 25 21 4 42
13 48 20 7 8 23 17 38 21 90 22 386 189 524 295 25 19 61 46 80 60 84 62 265
268 312 355 45 86 71 141 78 169 4 17 15 51 25 76 14 36 17 80 18 230 1 184 1
186 -32 287 -19 57 -38 105 -43 109 -5 3 -9 12 -9 21 0 9 -15 39 -33 67 -19
28 -50 76 -70 106 -86 132 -329 344 -508 444 -93 52 -301 156 -313 156 -8 0
-19 7 -26 15 -7 8 -27 17 -46 21 -19 3 -37 10 -40 15 -2 5 -26 15 -52 23 -26
9 -85 29 -132 46 -47 17 -105 36 -130 42 -25 6 -54 16 -65 23 -11 7 -39 16
-63 19 -24 4 -53 13 -65 20 -12 8 -46 17 -76 20 -30 4 -67 14 -82 22 -15 7
-41 14 -56 14 -16 0 -53 7 -83 15 -30 9 -98 22 -150 29 -52 8 -122 21 -155 29
-33 8 -96 17 -140 20 -44 4 -107 13 -140 21 -33 8 -114 17 -180 21 -66 4 -128
11 -138 16 -30 17 -793 40 -1062 32z m905 -1032 c606 -52 1080 -152 1541 -325
165 -62 382 -184 414 -233 17 -25 17 -28 1 -57 -41 -75 -234 -192 -472 -287
-221 -87 -546 -182 -704 -205 -25 -3 -70 -12 -100 -19 -30 -8 -82 -17 -115
-20 -33 -4 -87 -13 -120 -20 -33 -8 -98 -17 -145 -20 -47 -4 -122 -13 -167
-21 -121 -20 -778 -47 -968 -39 -402 15 -596 27 -675 40 -47 7 -123 16 -170
20 -47 3 -121 12 -165 21 -44 8 -143 26 -220 40 -281 50 -384 76 -658 166
-357 116 -627 260 -627 333 0 21 71 91 140 137 71 48 266 146 370 185 388 148
909 258 1405 298 105 8 240 19 300 24 196 16 860 6 1135 -18z"/>
<path d="M25962 23345 c-71 -26 -142 -80 -177 -134 -39 -58 -55 -161 -55 -352
0 -263 28 -343 152 -430 l63 -44 115 0 115 0 60 40 c38 25 74 61 100 98 l40
59 0 281 0 282 -27 45 c-39 65 -77 102 -128 127 -130 62 -159 65 -258 28z"/>
<path d="M26000 21751 c-56 -7 -87 -22 -152 -76 -105 -88 -118 -149 -118 -567
0 -263 3 -330 16 -384 26 -101 106 -197 186 -223 21 -7 40 -17 43 -22 10 -15
158 -11 180 5 11 7 31 17 45 21 40 12 116 81 147 133 l28 47 0 430 0 430 -32
50 c-48 75 -128 142 -180 150 -64 10 -111 11 -163 6z"/>
<path d="M25963 19840 c-120 -42 -188 -118 -217 -243 -23 -96 -23 -671 -1
-765 24 -101 72 -172 145 -214 69 -40 156 -55 233 -39 104 21 167 67 227 165
l25 41 0 430 0 430 -38 58 c-85 129 -236 184 -374 137z"/>
<path d="M25985 17952 c-55 -10 -143 -71 -186 -129 -61 -82 -69 -141 -69 -505
0 -397 7 -439 88 -529 30 -33 78 -72 106 -87 44 -23 63 -27 136 -26 73 0 92 4
136 27 62 32 112 78 150 136 l29 45 0 425 c0 403 -1 428 -20 466 -26 55 -106
130 -163 155 -52 23 -145 33 -207 22z"/>
<path d="M25984 16050 c-126 -37 -209 -124 -238 -252 -23 -102 -23 -666 0
-765 38 -163 151 -256 314 -256 119 -1 211 49 278 152 l37 56 0 431 0 430 -29
45 c-59 90 -108 127 -209 159 -73 23 -74 23 -153 0z"/>
<path d="M25930 14134 c-60 -33 -113 -79 -143 -125 -48 -73 -57 -152 -57 -494
0 -451 10 -483 180 -605 32 -23 43 -25 150 -25 l115 0 60 40 c38 25 74 61 100
98 l40 59 0 431 0 432 -28 46 c-35 60 -90 109 -156 142 -45 23 -65 27 -134 26
-67 0 -90 -5 -127 -25z"/>
<path d="M25980 12250 c-47 -8 -120 -51 -155 -92 -79 -91 -95 -158 -95 -386 0
-255 24 -340 123 -429 74 -67 224 -103 289 -69 14 8 42 19 61 25 43 15 105 75
144 139 l28 47 0 280 0 280 -37 55 c-89 134 -194 178 -358 150z"/>
<path d="M4272 22886 c-72 -38 -127 -91 -158 -152 l-29 -57 0 -257 0 -257 28
-55 c32 -64 88 -119 156 -156 40 -21 59 -25 141 -25 82 1 101 4 135 24 99 59
129 93 172 199 21 51 23 70 23 271 0 210 -1 218 -25 273 -47 105 -81 143 -170
187 -53 25 -70 29 -145 28 -68 0 -94 -5 -128 -23z"/>
<path d="M4341 21298 c-87 -13 -164 -69 -224 -163 l-32 -50 0 -420 0 -420 37
-55 c64 -95 96 -120 186 -150 71 -24 99 -25 187 -3 63 16 76 24 137 84 38 36
68 72 68 78 0 7 9 32 20 57 20 42 20 60 17 416 -3 350 -4 376 -24 427 -23 59
-78 124 -138 164 -48 31 -152 47 -234 35z"/>
<path d="M13930 21225 c-14 -8 -34 -15 -45 -15 -26 -1 -103 -53 -136 -93 -14
-18 -37 -52 -50 -77 -24 -44 -24 -50 -24 -305 l0 -260 27 -51 c27 -49 89 -115
139 -147 13 -8 57 -21 96 -28 160 -27 283 37 364 191 23 44 24 52 24 290 l0
245 -29 60 c-33 68 -123 162 -164 171 -15 3 -42 12 -60 20 -41 18 -110 18
-142 -1z"/>
<path d="M13950 19620 c-30 -4 -68 -14 -85 -23 -16 -9 -35 -17 -42 -17 -6 0
-40 -32 -76 -70 -52 -56 -68 -81 -78 -123 -16 -64 -16 -212 -3 -552 10 -237
12 -264 32 -300 12 -22 22 -43 22 -48 0 -19 90 -94 139 -117 45 -21 70 -25
140 -25 73 0 94 4 141 27 71 34 113 77 153 152 l32 61 0 395 0 395 -27 55
c-36 74 -92 131 -158 162 -65 30 -114 37 -190 28z"/>
<path d="M4270 19383 c-58 -30 -126 -92 -141 -129 -7 -16 -20 -37 -28 -48 -14
-16 -16 -72 -16 -435 l0 -416 28 -50 c37 -65 80 -109 143 -146 47 -27 59 -29
150 -29 87 0 105 3 149 26 70 37 126 101 158 183 l27 69 0 365 c0 358 0 366
-23 414 -50 108 -92 152 -187 200 -65 32 -196 31 -260 -4z"/>
<path d="M13900 17717 c-31 -12 -72 -32 -92 -45 -41 -25 -98 -86 -98 -104 0
-6 -6 -19 -14 -27 -26 -28 -32 -157 -26 -516 l6 -350 27 -52 c40 -75 117 -139
197 -163 89 -26 114 -27 198 -1 61 18 81 31 127 76 29 30 64 76 77 102 23 48
23 51 23 443 l0 395 -27 57 c-36 76 -104 142 -185 178 -79 36 -135 38 -213 7z"/>
<path d="M4339 17498 c-88 -11 -181 -83 -231 -178 l-23 -45 0 -415 0 -415 23
-29 c12 -16 22 -34 22 -41 0 -20 89 -94 145 -122 74 -36 147 -41 230 -13 56
19 79 33 131 86 35 35 64 70 64 77 0 7 9 30 20 52 19 37 20 59 20 407 l0 368
-25 61 c-65 162 -190 231 -376 207z"/>
<path d="M13867 15801 c-74 -35 -131 -90 -165 -160 l-27 -56 0 -400 0 -400 27
-55 c32 -64 47 -82 110 -133 55 -45 135 -62 237 -52 105 10 198 79 249 185
l27 55 0 395 0 395 -34 65 c-33 63 -110 150 -134 150 -7 1 -30 9 -52 20 -61
30 -164 26 -238 -9z"/>
<path d="M4308 15591 c-26 -9 -64 -27 -86 -41 -38 -24 -52 -40 -110 -125 l-27
-40 0 -415 0 -415 29 -50 c82 -140 191 -194 353 -173 46 6 81 18 108 36 57 39
113 100 126 140 6 19 17 46 25 60 11 22 14 100 14 391 0 353 -1 366 -22 424
-18 47 -38 77 -89 127 -59 59 -72 67 -135 83 -82 20 -123 20 -186 -2z"/>
<path d="M13900 13911 c-84 -27 -160 -94 -201 -177 l-24 -49 0 -405 0 -405 27
-57 c32 -66 78 -107 166 -148 159 -76 352 -4 430 159 l27 56 0 395 0 395 -26
55 c-31 63 -84 120 -149 158 -37 22 -58 27 -135 29 -49 1 -101 -1 -115 -6z"/>
<path d="M4310 13701 c-72 -23 -149 -90 -198 -171 l-27 -45 0 -415 0 -415 28
-50 c37 -67 91 -120 152 -153 43 -22 62 -26 140 -26 79 0 97 4 145 28 65 33
135 104 151 155 7 20 18 46 26 57 11 18 13 92 11 405 l-3 384 -33 67 c-36 74
-75 116 -143 155 -36 21 -60 26 -134 29 -49 2 -101 0 -115 -5z"/>
<path d="M13950 12029 c-73 -14 -161 -64 -203 -115 -13 -16 -35 -57 -50 -91
l-28 -62 3 -393 c3 -389 3 -393 26 -436 27 -51 61 -91 118 -137 56 -46 146
-62 256 -45 75 12 79 14 142 74 44 42 72 78 88 116 23 54 23 59 23 445 l0 390
-28 58 c-31 66 -115 154 -155 163 -15 4 -36 12 -47 19 -26 16 -100 23 -145 14z"/>
<path d="M4317 11799 c-87 -28 -155 -83 -203 -164 l-29 -50 0 -270 c0 -269 0
-270 24 -310 64 -103 127 -153 220 -175 44 -10 71 -10 138 0 72 10 91 18 131
49 61 49 93 92 120 164 20 54 22 77 22 275 0 162 -4 224 -14 243 -7 14 -16 38
-20 54 -9 36 -55 95 -106 135 -27 22 -65 37 -120 51 -95 22 -89 22 -163 -2z"/>
<path d="M13850 10094 c-64 -36 -117 -91 -148 -154 l-27 -55 0 -250 0 -250 28
-59 c77 -158 251 -228 415 -167 78 30 140 87 179 167 l28 59 0 250 c0 215 -2
253 -16 275 -10 14 -20 35 -24 48 -11 36 -86 109 -141 137 -43 22 -61 25 -149
24 -87 0 -106 -4 -145 -25z"/>
</g>
</svg>
